<svg xmlns="http://www.w3.org/2000/svg" xmlns:xlink="http://www.w3.org/1999/xlink" width="500" zoomAndPan="magnify" viewBox="0 0 375 374.999991" height="500" preserveAspectRatio="xMidYMid meet" version="1.0"><defs><g/><clipPath id="id1"><path d="M 246.28125 234.335938 L 271.03125 234.335938 L 271.03125 259.085938 L 246.28125 259.085938 Z M 246.28125 234.335938 " clip-rule="nonzero"/></clipPath></defs><rect x="-37.5" width="450" fill="#ffffff" y="-37.499999" height="449.999989" fill-opacity="1"/><rect x="-37.5" width="450" fill="#000000" y="-37.499999" height="449.999989" fill-opacity="1"/><rect x="-37.5" width="450" fill="#ffffff" y="-37.499999" height="449.999989" fill-opacity="1"/><rect x="-37.5" width="450" fill="#000000" y="-37.499999" height="449.999989" fill-opacity="1"/><g fill="#ffffff" fill-opacity="1"><g transform="translate(97.886776, 261.448209)"><g><path d="M 114.40625 -80.078125 C 117.332031 -78.753906 120.265625 -76.113281 123.203125 -72.15625 C 129.066406 -64.382812 132 -54.046875 132 -41.140625 C 132 -25.441406 125.179688 -13.851562 111.546875 -6.375 C 104.648438 -2.707031 97.753906 -0.582031 90.859375 0 L 13.203125 0 L 13.203125 -143 L 79.421875 -143 C 84.847656 -143 90.640625 -141.828125 96.796875 -139.484375 C 108.972656 -134.785156 116.75 -126.644531 120.125 -115.0625 C 122.613281 -106.695312 122.390625 -98.335938 119.453125 -89.984375 C 117.992188 -85.867188 116.3125 -82.566406 114.40625 -80.078125 Z M 47.515625 -116.375 L 47.515625 -84.484375 L 78.09375 -84.484375 C 82.5 -84.484375 86.316406 -86.019531 89.546875 -89.09375 C 92.617188 -92.175781 94.15625 -95.914062 94.15625 -100.3125 C 94.15625 -104.863281 92.617188 -108.679688 89.546875 -111.765625 C 86.316406 -114.835938 82.5 -116.375 78.09375 -116.375 Z M 105.15625 -42.234375 C 105.15625 -46.640625 103.617188 -50.457031 100.546875 -53.6875 C 97.460938 -56.757812 93.71875 -58.296875 89.3125 -58.296875 L 47.515625 -58.296875 L 47.515625 -26.40625 L 89.3125 -26.40625 C 93.71875 -26.40625 97.460938 -27.941406 100.546875 -31.015625 C 103.617188 -34.097656 105.15625 -37.835938 105.15625 -42.234375 Z M 105.15625 -42.234375 "/></g></g></g><g clip-path="url(#id1)"><path fill="#ff1616" d="M 271.03125 246.710938 C 271.03125 247.523438 270.953125 248.328125 270.792969 249.125 C 270.636719 249.921875 270.402344 250.695312 270.089844 251.445312 C 269.777344 252.195312 269.398438 252.910156 268.945312 253.585938 C 268.496094 254.261719 267.980469 254.886719 267.40625 255.460938 C 266.832031 256.035156 266.207031 256.546875 265.53125 257 C 264.855469 257.449219 264.144531 257.832031 263.394531 258.140625 C 262.640625 258.453125 261.867188 258.6875 261.070312 258.847656 C 260.273438 259.003906 259.46875 259.085938 258.65625 259.085938 C 257.84375 259.085938 257.039062 259.003906 256.242188 258.847656 C 255.445312 258.6875 254.671875 258.453125 253.921875 258.140625 C 253.171875 257.832031 252.457031 257.449219 251.78125 257 C 251.105469 256.546875 250.480469 256.035156 249.90625 255.460938 C 249.332031 254.886719 248.820312 254.261719 248.367188 253.585938 C 247.917969 252.910156 247.535156 252.195312 247.222656 251.445312 C 246.914062 250.695312 246.679688 249.921875 246.519531 249.125 C 246.359375 248.328125 246.28125 247.523438 246.28125 246.710938 C 246.28125 245.898438 246.359375 245.089844 246.519531 244.292969 C 246.679688 243.496094 246.914062 242.722656 247.222656 241.972656 C 247.535156 241.222656 247.917969 240.507812 248.367188 239.832031 C 248.820312 239.160156 249.332031 238.53125 249.90625 237.957031 C 250.480469 237.382812 251.105469 236.871094 251.78125 236.417969 C 252.457031 235.96875 253.171875 235.585938 253.921875 235.277344 C 254.671875 234.964844 255.445312 234.730469 256.242188 234.570312 C 257.039062 234.414062 257.84375 234.335938 258.65625 234.335938 C 259.46875 234.335938 260.273438 234.414062 261.070312 234.570312 C 261.867188 234.730469 262.640625 234.964844 263.394531 235.277344 C 264.144531 235.585938 264.855469 235.96875 265.53125 236.417969 C 266.207031 236.871094 266.832031 237.382812 267.40625 237.957031 C 267.980469 238.53125 268.496094 239.160156 268.945312 239.832031 C 269.398438 240.507812 269.777344 241.222656 270.089844 241.972656 C 270.402344 242.722656 270.636719 243.496094 270.792969 244.292969 C 270.953125 245.089844 271.03125 245.898438 271.03125 246.710938 Z M 271.03125 246.710938 " fill-opacity="1" fill-rule="nonzero"/></g></svg>