<?xml version="1.0" encoding="UTF-8"?>
<svg version="1.1" xmlns="http://www.w3.org/2000/svg" width="625" height="512">
<path d="M0 0 C3.14703929 1.80787364 6.05318503 3.88741574 9 6 C9.99 6.495 9.99 6.495 11 7 C11 6.01 11 5.02 11 4 C24.86 4 38.72 4 53 4 C53.33 2.35 53.66 0.7 54 -1 C58.875 1.875 58.875 1.875 60 3 C61.39990884 3.10845667 62.805177 3.14901035 64.20922852 3.16113281 C65.5518148 3.17554413 65.5518148 3.17554413 66.92152405 3.19024658 C67.89746017 3.19449646 68.8733963 3.19874634 69.87890625 3.203125 C70.87953598 3.20882507 71.88016571 3.21452515 72.91111755 3.22039795 C75.03716977 3.22986853 77.16323681 3.23639005 79.28930664 3.24023438 C82.52451808 3.24988668 85.75907992 3.28086852 88.99414062 3.3125 C91.05989206 3.31903519 93.12564805 3.32428363 95.19140625 3.328125 C96.15317276 3.3404718 97.11493927 3.3528186 98.10585022 3.36553955 C104.14384969 3.34578142 108.43938137 2.32685755 114 0 C117.1171875 0.109375 117.1171875 0.109375 119.875 0.75 C120.80054688 0.95109375 121.72609375 1.1521875 122.6796875 1.359375 C125 2 125 2 127 3 C128.51164392 3.08977728 130.02720179 3.11757433 131.54150391 3.11352539 C132.48232819 3.11344986 133.42315247 3.11337433 134.39248657 3.11329651 C135.41023163 3.10813522 136.42797668 3.10297394 137.4765625 3.09765625 C138.51694672 3.0962413 139.55733093 3.09482635 140.62924194 3.09336853 C143.96119021 3.08775866 147.29307195 3.07520447 150.625 3.0625 C152.88020736 3.05748627 155.13541578 3.05292314 157.390625 3.04882812 C162.92710614 3.03778603 168.46354832 3.02103827 174 3 C174 2.01 174 1.02 174 0 C176.96175123 0.61277612 178.38058783 1.25372522 181 3 C184.02593695 3.12378447 184.02593695 3.12378447 187.46875 2.88671875 C210.00209681 2.20094573 210.00209681 2.20094573 215.2890625 7.1171875 C218.22853873 10.75779351 220.16257765 14.72528493 222 19 C222.74019305 20.46070354 223.48747913 21.91783676 224.2421875 23.37109375 C226 26.7565884 226 26.7565884 226 29 C216.43 29 206.86 29 197 29 C197.14308594 35.95900391 197.14308594 35.95900391 197.2890625 43.05859375 C197.3450226 46.03449351 197.40029002 49.01037521 197.453125 51.98632812 C197.53666934 56.68839111 197.62248724 61.39031939 197.72363281 66.09204102 C197.80520623 69.89151607 197.87509278 73.69105718 197.93757248 77.49089241 C197.96308217 78.9254935 197.99248965 80.3600319 198.02626419 81.7944622 C198.20858245 89.65768 198.02079006 97.36543954 197.14990234 105.18383789 C197.03681449 106.23801611 197.03681449 106.23801611 196.92144203 107.31349087 C196.0992201 113.91419551 194.11830115 119.51211352 188.8359375 123.7265625 C188.23007812 124.14679688 187.62421875 124.56703125 187 125 C187.63808594 125.67546875 188.27617187 126.3509375 188.93359375 127.046875 C190.17302734 128.38492188 190.17302734 128.38492188 191.4375 129.75 C192.26121094 130.63171875 193.08492188 131.5134375 193.93359375 132.421875 C195.83068018 134.78875032 196.62102932 136.0509191 197 139 C193.63062552 138.42008587 192.03447573 137.39650321 189.6875 134.9375 C189.07648438 134.30199219 188.46546875 133.66648437 187.8359375 133.01171875 C186.11485015 131.12584644 184.46061316 129.19959728 182.8125 127.25 C179.27432245 123.12480663 175.33007374 119.53535855 171.26293945 115.94433594 C168.85846476 113.80125992 166.80657404 111.74327743 164.86328125 109.1640625 C164.24839844 108.44992188 163.63351562 107.73578125 163 107 C160.03173174 107.05117704 157.84199159 107.33703112 155 108 C145.47607457 110.02700134 137.12854907 111.31902993 128 107 C124.36623882 104.2828144 121.19629135 101.21251618 118 98 C117.05833984 97.12988281 117.05833984 97.12988281 116.09765625 96.2421875 C107.18382474 87.87410077 100.07630504 78.44030985 99.5625 66 C99.74809137 60.54223893 100.3549754 56.2145597 104 52 C109.153969 47.85266557 115.18659547 45.44798469 121.25 42.9375 C129.26152028 39.58849315 133.19277139 36.9874998 137 29 C134.55987895 29.06002758 132.12586474 29.14700204 129.6875 29.25 C128.99720703 29.26417969 128.30691406 29.27835938 127.59570312 29.29296875 C123.31566483 29.49857979 123.31566483 29.49857979 120.01953125 32.046875 C119.68308594 32.69140625 119.34664062 33.3359375 119 34 C116.5738466 33.58169769 115.30256862 33.32958598 113.60832214 31.48405457 C110.77490862 28.86956573 106.85049575 29.5163153 103.17578125 29.48828125 C101.88367989 29.46135445 101.88367989 29.46135445 100.56547546 29.43388367 C97.81453342 29.37970702 95.06376559 29.34586177 92.3125 29.3125 C90.44724134 29.27933337 88.5820057 29.24484433 86.71679688 29.20898438 C82.14450517 29.12148614 77.57301199 29.06148231 73 29 C73 37.58 73 46.16 73 55 C74.32 55.66 75.64 56.32 77 57 C76.5020163 60.73487777 76.12508244 62.81237635 74 66 C73.64854224 69.23078577 73.64854224 69.23078577 73.63354492 72.98730469 C73.61124817 74.04909691 73.61124817 74.04909691 73.58850098 75.13233948 C73.54224207 77.47879332 73.51066065 79.82516297 73.48046875 82.171875 C73.45411144 83.81317772 73.4273566 85.4544741 73.40022278 87.09576416 C73.34572629 90.54571617 73.29898656 93.99567386 73.25708008 97.44580078 C73.2028573 101.82665825 73.12534088 106.2067383 73.04113293 110.58710861 C72.97927115 113.98461403 72.93247367 117.38221231 72.88967323 120.78000641 C72.86720682 122.39210089 72.83976327 124.00413518 72.80687523 125.61605072 C72.50329082 141.1052937 74.66912116 154.6590153 81 169 C81.45761719 170.0415625 81.91523438 171.083125 82.38671875 172.15625 C87.90242688 181.87885417 104.44920191 188.37197497 114.90234375 191.4453125 C115.94068359 191.71988281 115.94068359 191.71988281 117 192 C117.68191406 192.20367187 118.36382812 192.40734375 119.06640625 192.6171875 C151.52300669 200.8583417 185.42050163 183.91725589 213.25 169.125 C245.03652705 152.23613349 280.29321002 135.07424366 317 146 C329.78523548 150.46277087 338.73704738 159.04530869 345 171 C345 171.99 345 172.98 345 174 C341.43511289 173.38140599 338.29283975 172.40362373 334.9375 171.0625 C308.46167176 161.31570915 280.65295074 170.09502771 256 181 C246.52487041 185.47864584 237.23245785 190.34334686 227.92333984 195.15478516 C209.84161725 204.47631549 191.2333369 213.54843076 171 217 C170.2678125 217.12890625 169.535625 217.2578125 168.78125 217.390625 C145.9094692 220.6336387 122.24615649 215.64909591 103.36328125 202.109375 C79.21372214 183.07176636 57.98912874 157.06407545 53 126 C52.68862413 121.11347072 52.64862141 116.26603452 52.71875 111.37182617 C52.7498186 109.2001793 52.75973857 107.02926918 52.765625 104.85742188 C52.81953144 95.21102729 53.30249788 85.61985185 54 76 C53.01 76.495 53.01 76.495 52 77 C39.95153641 78.49078353 29.14616284 73.62375779 19.11254883 67.46679688 C15.4647655 65.32558024 15.4647655 65.32558024 11.3671875 65.57421875 C-0.12563784 72.49646504 -10.18936236 80.6466167 -15.375 93.375 C-16.21959493 98.27365062 -16.1613495 103.04298471 -16 108 C-10.55306686 108.09688221 -5.36095333 108.12862175 0 107 C-0.18949219 105.98808594 -0.37898438 104.97617188 -0.57421875 103.93359375 C-1.49333492 95.44230955 0.91274037 85.02688371 6 78 C9.69209482 74.1287739 13.53309279 71.32177051 18.875 70.625 C26.61266717 71.55352006 32.60223197 78.86425954 38 84 C38.65226562 84.61359375 39.30453125 85.2271875 39.9765625 85.859375 C42.91718967 88.89755852 43.91889201 90.55021934 44.6875 94.8125 C43.65546896 106.71525797 33.13486894 117.9602872 24.45556641 125.30737305 C22.9703776 126.5382487 21.4851888 127.76912435 20 129 C20.28609131 129.49588623 20.57218262 129.99177246 20.86694336 130.50268555 C37.11157149 158.85051835 51.44540777 189.63209919 44 223 C39.70143515 238.17550021 32.50570306 251.30267785 22 263 C22.6290625 262.66226562 23.258125 262.32453125 23.90625 261.9765625 C33.32623679 257.06795493 42.13895051 254.16904426 52.80078125 256.65234375 C59.53917094 258.82391332 64.04817976 262.02688161 69 267 C69.54785156 267.48855469 70.09570312 267.97710937 70.66015625 268.48046875 C74.91125344 272.38987019 78.35634129 276.8955355 81.8125 281.5 C82.29307861 282.1290625 82.77365723 282.758125 83.26879883 283.40625 C88.19055392 290.11416111 89.52511796 296.11436375 88.53125 304.34765625 C87.45350236 309.72846981 85.37298571 312.8359469 81.125 316.4375 C74.86623003 319.5466954 67.05928805 318.8106386 60.3984375 317.48046875 C50.81944177 314.22873609 42.25942731 306.679938 34.671875 300.15234375 C32.31224235 297.79089015 32.31224235 297.79089015 30 298 C19.3554691 311.55473516 16.34276143 327.18565742 18 344 C19.21263453 349.98770277 21.33082211 355.81287847 24.1640625 361.22265625 C25 363 25 363 25 366 C15.99844359 363.1759823 9.74147559 353.530241 5.30859375 345.59375 C-3.3927176 328.34697168 -5.83977825 310.73862913 0 292 C1.7875983 287.86987468 3.78400471 283.91564217 6 280 C4.43619175 281.26922313 2.87406906 282.54052292 1.3125 283.8125 C0.3121875 284.6271875 -0.688125 285.441875 -1.71875 286.28125 C-3.95873616 288.12181694 -6.16097572 289.99823053 -8.34375 291.90625 C-16.54489143 299.05341988 -24.17746978 305.48716941 -35.60546875 305.265625 C-44.0268331 304.33144429 -49.73667171 298.14487096 -55 292 C-63.0660514 281.65958657 -68.56783987 273.87065646 -67.37597656 260.22412109 C-65.69433768 250.27624431 -58.6734814 239.34593994 -51 233 C-44.28528683 228.90910332 -37.64681152 229.14507697 -30 230 C-24.38594781 231.82783095 -19.25607172 234.88579734 -15 239 C-15 239.66 -15 240.32 -15 241 C-14.13375 241.37125 -14.13375 241.37125 -13.25 241.75 C-10.67060021 243.18299988 -8.93878408 244.78424676 -7 247 C-7 247.66 -7 248.32 -7 249 C9.82881483 235.71928083 21.77904709 214.14348294 25 193 C26.44956431 173.29864084 21.52889072 156.05507461 14 138 C13.69263916 137.24162842 13.38527832 136.48325684 13.06860352 135.7019043 C11.30960624 131.41588128 11.30960624 131.41588128 7.58984375 129.02734375 C6.71457031 128.99769531 5.83929688 128.96804688 4.9375 128.9375 C-6.18972149 127.63537834 -14.2107068 119.47036151 -22 112 C-23.30517578 110.80697266 -23.30517578 110.80697266 -24.63671875 109.58984375 C-32.89288178 101.80264066 -38.48266561 93.76001587 -39.25 82.25 C-39.026154 70.31900847 -31.67486269 61.11818035 -23.45703125 53.15234375 C-19.55384962 49.73318146 -15.34746503 46.82267563 -11 44 C-12.17864796 40.9534055 -13.4509966 38.0616274 -15 35.1875 C-18.89517588 27.39714824 -20.91512835 18.20087503 -18.27734375 9.66015625 C-16.30956012 5.38201938 -14.02512758 2.58020999 -10 0 C-6.06907489 -1.31030837 -4.04815947 -0.97939342 0 0 Z M7 24 C8 26 8 26 8 26 Z M6 26 C5.01 27.485 5.01 27.485 4 29 C4.33 29.99 4.66 30.98 5 32 C5.66 31.01 6.32 30.02 7 29 C6.67 28.01 6.34 27.02 6 26 Z M28 29 C28.33 30.98 28.66 32.96 29 35 C29.50977917 41.34282927 29.25723958 46.35411806 26 52 C24.08743156 54.1072319 22.05980777 56.03173924 20 58 C20 58.66 20 59.32 20 60 C29.63125054 60.75211501 38.83495148 58.59659315 46.49609375 52.44921875 C50.64079041 48.45523833 52.8124153 45.23418191 53.3046875 39.37109375 C53.31166735 35.91257799 53.1660833 32.45453272 53 29 C44.75 29 36.5 29 28 29 Z M153 29 C154.32 31.64 155.64 34.28 157 37 C158.73431165 43.93724662 158.44881094 49.7375266 155 56 C149.66984643 62.00889971 142.69477232 64.55314805 135.3828125 67.390625 C129.19738845 69.9663183 124.5236469 73.15751616 121 79 C120.45176277 81.92497557 120.62543855 84.00350842 121 87 C127.25769585 87.19728696 132.55598422 86.73169287 138.5625 85 C139.33190918 84.78069824 140.10131836 84.56139648 140.89404297 84.33544922 C152.58385253 80.8124601 167.04678332 75.30862153 173.57421875 64.359375 C175.23551682 60.44508367 175.34385599 57.65466594 175.29296875 53.4140625 C175.28660149 52.36138687 175.28660149 52.36138687 175.28010559 51.28744507 C175.26343599 49.0662244 175.22580872 46.84594212 175.1875 44.625 C175.17243788 43.11069027 175.15875216 41.59636619 175.14648438 40.08203125 C175.11613398 36.38737659 175.05739795 32.69472708 175 29 C167.74 29 160.48 29 153 29 Z M-35.97265625 259.63671875 C-41.00646486 265.50464593 -45.96454155 273.27052141 -47 281 C-37.41160454 278.1848025 -30.06501457 271.17392531 -22.5625 264.8125 C-21.97146484 264.31379395 -21.38042969 263.81508789 -20.77148438 263.30126953 C-17.45121726 260.44024899 -14.63111189 257.53616266 -12 254 C-21.46527458 250.55808197 -28.76644337 252.97275555 -35.97265625 259.63671875 Z M40 287 C38.17119341 289.06277019 38.17119341 289.06277019 37 291 C43.95544836 294.37965387 50.23405164 296.23327167 58 295 C61.49726521 293.36547907 61.49726521 293.36547907 64 291 C64.86625 290.38125 64.86625 290.38125 65.75 289.75 C67.84478302 286.81730378 68.25439437 283.49861105 69 280 C57.96958004 278.11052991 49.44884702 281.14871399 40 287 Z " fill="#001013" transform="translate(280,146)"/>
<path d="M0 0 C8.12839505 3.69311862 14.92521996 12.25684842 19 20 C20.27516391 27.1932323 16.85626135 34.0962475 13 40 C-3.73987038 61.63855337 -30.57139294 70.64145987 -56.80859375 74.5703125 C-101.46491909 79.70019965 -145.62146822 69.71391438 -188.96002197 60.0189209 C-242.10195546 48.14645535 -299.69546576 37.20477114 -351 62 C-351.6408252 62.30663574 -352.28165039 62.61327148 -352.94189453 62.92919922 C-367.56315407 70.03895713 -379.96671731 79.37535574 -391.61474609 90.66162109 C-392.80926144 91.81571576 -394.02212082 92.95076858 -395.23828125 94.08203125 C-420.90446932 118.5137734 -435.68550555 155.63895368 -437.11010742 190.71069336 C-437.69815791 218.86019898 -434.13111704 252.91981252 -414.98046875 275.3671875 C-399.59835419 290.03584591 -379.15162708 295.57345183 -358.4453125 295.2734375 C-341.91209286 294.69342528 -327.29714546 287.44343574 -315.6640625 275.88671875 C-304.47955119 263.76743157 -301.1831623 250.92168606 -301.66015625 234.828125 C-301.97354966 228.97352283 -303.1012639 223.56058429 -305 218 C-305.56074219 218.15984375 -306.12148438 218.3196875 -306.69921875 218.484375 C-312.2411657 219.7263733 -318.97107142 219.9436019 -324.1484375 217.3671875 C-331.21444886 212.14966856 -336.82422031 204.6555961 -341 197 C-341 196.34 -341 195.68 -341 195 C-340.11699219 195.04640625 -339.23398437 195.0928125 -338.32421875 195.140625 C-327.37549311 195.46990998 -318.44234004 193.7912717 -309.78515625 186.76953125 C-305.0982889 182.12368681 -301.50211273 176.45908476 -300 170 C-300 168.68 -300 167.36 -300 166 C-311.48631964 165.35186911 -320.04018596 166.9870576 -329.171875 174.20703125 C-332.40278325 177.37580665 -334.72013106 181.11385976 -337 185 C-344.93889407 183.99391895 -351.3720764 173.8300353 -356.0390625 167.88671875 C-357.32929393 165.35345949 -357.38872521 163.81505396 -357 161 C-352.14729446 152.35133854 -344.2134634 146.52794333 -335.1484375 142.83984375 C-327.49708783 140.79885097 -317.8911836 140.59274882 -310.625 143.9375 C-297.99832989 151.52614982 -284.8264262 165.8060274 -280 180 C-279.40183308 183.05476084 -279.15106824 185.87792297 -279 189 C-272.39112503 187.42711535 -267.30128864 185.23541005 -261.8125 181.20703125 C-260 180 -260 180 -258 180 C-258 178.02 -258 176.04 -258 174 C-258.9744104 174.0942627 -258.9744104 174.0942627 -259.96850586 174.19042969 C-277.88477774 175.70030841 -277.88477774 175.70030841 -282.89208984 172.96728516 C-286.24917586 169.932802 -288.1049221 166.03733987 -290 162 C-291.0170659 160.33103163 -292.03740242 158.6640473 -293.0625 157 C-294.84770731 153.82629811 -295 152.87733085 -295 149 C-283.12 149 -271.24 149 -259 149 C-259 147.68 -259 146.36 -259 145 C-253.125 146.875 -253.125 146.875 -252 148 C-249.9243273 148.07297656 -247.84643924 148.08430995 -245.76953125 148.0703125 C-243.80102485 148.08619556 -241.83251849 148.10208498 -239.86401367 148.11816406 C-238.50528318 148.12269155 -237.146473 148.11664756 -235.7878418 148.09960938 C-224.566879 147.97911581 -224.566879 147.97911581 -220.90722656 150.36352539 C-219.33458478 152.15598532 -218.17562682 153.92840188 -217 156 C-216.15292367 157.20498909 -215.30142296 158.40688129 -214.4453125 159.60546875 C-213.66639629 160.79591236 -212.8929095 161.98992685 -212.125 163.1875 C-211.52171875 164.09145508 -211.52171875 164.09145508 -210.90625 165.01367188 C-208.73168098 168.38277456 -208 169.87711579 -208 174 C-217.57 174 -227.14 174 -237 174 C-236.9278125 176.69800781 -236.855625 179.39601562 -236.78125 182.17578125 C-236.32768455 199.55891219 -235.88494762 216.94784184 -235.76782227 234.33700562 C-235.75607133 235.80436359 -235.73910116 237.27169035 -235.71655273 238.73892212 C-235.55477205 249.77870216 -235.89635142 259.31556366 -243.59765625 267.8203125 C-245 269 -245 269 -247 269 C-246.54109375 269.50789063 -246.0821875 270.01578125 -245.609375 270.5390625 C-242.05320338 274.52854915 -238.83291718 278.46733251 -236 283 C-240 283 -240 283 -242.83984375 280.55078125 C-243.88272474 279.48133005 -244.91496293 278.401419 -245.9375 277.3125 C-246.44990234 276.78205078 -246.96230469 276.25160156 -247.49023438 275.70507812 C-248.51407899 274.64480701 -249.53444124 273.58116197 -250.55126953 272.51416016 C-253.64611656 269.27953911 -256.83698628 266.149418 -260.078125 263.0625 C-261.13550686 262.04176009 -262.19279763 261.02092581 -263.25 260 C-263.79140625 259.49210937 -264.3328125 258.98421875 -264.890625 258.4609375 C-267.9717544 255.45683634 -269.71101286 253.36691686 -270 249 C-269.071875 248.443125 -268.14375 247.88625 -267.1875 247.3125 C-262.4546245 243.87884522 -260.71016389 240.33695566 -259.41015625 234.65625 C-258.84768431 231.01357458 -258.55970391 227.36229693 -258.3125 223.6875 C-258.26399902 222.98133545 -258.21549805 222.2751709 -258.16552734 221.54760742 C-257.98590312 218.3606151 -257.98056115 216.05831655 -259 213 C-260.16015625 213.04640625 -261.3203125 213.0928125 -262.515625 213.140625 C-276.7146766 213.51997734 -276.7146766 213.51997734 -283.5 210.5625 C-286.22234189 209.33235353 -286.22234189 209.33235353 -289 209 C-292.92328799 210.71773588 -295.90325651 213.06768537 -299 216 C-298.6596875 216.42667969 -298.319375 216.85335937 -297.96875 217.29296875 C-285.2860766 233.65226822 -279.05457746 249.2990956 -281 270 C-283.43649853 284.8293364 -292.41993495 297.95538798 -304.46484375 306.8125 C-322.0615085 318.52677898 -341.99625802 321.93892813 -362.72387695 317.97216797 C-394.2209185 310.851738 -419.28386196 284.38659012 -436 258 C-458.03482413 220.730186 -463.39205807 179.12074316 -452.75 137.25 C-446.32118242 113.52244263 -434.76346131 92.25356217 -418.04296875 74.25390625 C-416.6244739 72.68895113 -415.26401964 71.07019275 -413.953125 69.4140625 C-391.21951307 41.31531815 -351.25375163 27.72406482 -316.6875 23.8125 C-279.03718507 20.04633639 -241.85752507 28.18856071 -205.2890625 36.20703125 C-203.97566863 36.49441399 -202.66226832 36.78176734 -201.34886169 37.0690918 C-194.86753046 38.48845368 -188.3898963 39.92182268 -181.91723633 41.38037109 C-158.79559418 46.5376729 -135.11324371 51.12983931 -111.33203125 51.16796875 C-110.56807541 51.17129715 -109.80411957 51.17462555 -109.01701355 51.17805481 C-107.41816803 51.18305849 -105.81931232 51.1854652 -104.22045898 51.18530273 C-101.83363765 51.18748071 -99.44728652 51.20568455 -97.06054688 51.22460938 C-83.02145366 51.27780592 -69.07996909 50.46475929 -55.5625 46.375 C-54.69125488 46.11702637 -53.82000977 45.85905273 -52.92236328 45.59326172 C-39.52170841 41.47316195 -26.75675997 36.17761558 -16 27 C-15.32582031 26.42507812 -14.65164063 25.85015625 -13.95703125 25.2578125 C-7.24652287 19.04808833 -3.89708455 11.7052953 -1.578125 2.96875 C-1 1 -1 1 0 0 Z " fill="#001013" transform="translate(459,1)"/>
</svg>
