<svg width="545" height="121" viewBox="0 0 545 121" fill="none" xmlns="http://www.w3.org/2000/svg">
<path d="M28.1818 94H0.909091L31.6364 0.909088H66.1818L96.9091 94H69.6364L49.2727 26.5455H48.5455L28.1818 94ZM23.0909 57.2727H74.3636V76.1818H23.0909V57.2727ZM128.784 77.4545L128.966 47.6364H132.239L149.148 24.1818H177.33L148.966 60.7273H141.875L128.784 77.4545ZM106.239 94V0.909088H131.33V94H106.239ZM149.33 94L133.33 66.3636L149.693 48.5455L178.057 94H149.33ZM247.682 46.9091H224.591C224.47 45.4848 223.97 44.2576 223.091 43.2273C222.212 42.197 221.076 41.4091 219.682 40.8636C218.318 40.2879 216.803 40 215.136 40C212.985 40 211.136 40.3939 209.591 41.1818C208.045 41.9697 207.288 43.0909 207.318 44.5455C207.288 45.5758 207.727 46.5303 208.636 47.4091C209.576 48.2879 211.379 48.9697 214.045 49.4545L228.227 52C235.379 53.303 240.697 55.5 244.182 58.5909C247.697 61.6515 249.47 65.7576 249.5 70.9091C249.47 75.8788 247.985 80.197 245.045 83.8636C242.136 87.5 238.152 90.3182 233.091 92.3182C228.061 94.2879 222.318 95.2727 215.864 95.2727C205.197 95.2727 196.848 93.0909 190.818 88.7273C184.818 84.3636 181.47 78.6061 180.773 71.4545H205.682C206.015 73.6667 207.106 75.3788 208.955 76.5909C210.833 77.7727 213.197 78.3636 216.045 78.3636C218.348 78.3636 220.242 77.9697 221.727 77.1818C223.242 76.3939 224.015 75.2727 224.045 73.8182C224.015 72.4848 223.348 71.4242 222.045 70.6364C220.773 69.8485 218.773 69.2121 216.045 68.7273L203.682 66.5455C196.561 65.303 191.227 62.9394 187.682 59.4545C184.136 55.9697 182.379 51.4848 182.409 46C182.379 41.1515 183.652 37.0455 186.227 33.6818C188.833 30.2879 192.545 27.7121 197.364 25.9545C202.212 24.1667 207.955 23.2727 214.591 23.2727C224.682 23.2727 232.636 25.3636 238.455 29.5455C244.303 33.7273 247.379 39.5151 247.682 46.9091ZM284.205 54.7273V94H259.114V0.909088H283.295V37.4545H284.023C285.598 33 288.22 29.5303 291.886 27.0455C295.553 24.5303 299.962 23.2727 305.114 23.2727C310.053 23.2727 314.341 24.3939 317.977 26.6364C321.644 28.8788 324.477 31.9697 326.477 35.9091C328.508 39.8485 329.508 44.3636 329.477 49.4545V94H304.386V54.7273C304.417 51.2727 303.553 48.5606 301.795 46.5909C300.068 44.6212 297.598 43.6364 294.386 43.6364C292.356 43.6364 290.568 44.0909 289.023 45C287.508 45.8788 286.326 47.1515 285.477 48.8182C284.659 50.4545 284.235 52.4242 284.205 54.7273ZM361.318 95.0909C356.864 95.0909 352.924 94.3636 349.5 92.9091C346.106 91.4242 343.439 89.1818 341.5 86.1818C339.561 83.1818 338.591 79.3636 338.591 74.7273C338.591 70.9091 339.242 67.6515 340.545 64.9545C341.848 62.2273 343.667 60 346 58.2727C348.333 56.5455 351.045 55.2273 354.136 54.3182C357.258 53.4091 360.621 52.8182 364.227 52.5455C368.136 52.2424 371.273 51.8788 373.636 51.4545C376.03 51 377.758 50.3788 378.818 49.5909C379.879 48.7727 380.409 47.697 380.409 46.3636V46.1818C380.409 44.3636 379.712 42.9697 378.318 42C376.924 41.0303 375.136 40.5455 372.955 40.5455C370.561 40.5455 368.606 41.0758 367.091 42.1364C365.606 43.1667 364.712 44.7576 364.409 46.9091H341.318C341.621 42.6667 342.97 38.7576 345.364 35.1818C347.788 31.5758 351.318 28.697 355.955 26.5455C360.591 24.3636 366.379 23.2727 373.318 23.2727C378.318 23.2727 382.803 23.8636 386.773 25.0455C390.742 26.197 394.121 27.8182 396.909 29.9091C399.697 31.9697 401.818 34.3939 403.273 37.1818C404.758 39.9394 405.5 42.9394 405.5 46.1818V94H382.045V84.1818H381.5C380.106 86.7879 378.409 88.8939 376.409 90.5C374.439 92.1061 372.182 93.2727 369.636 94C367.121 94.7273 364.348 95.0909 361.318 95.0909ZM369.5 79.2727C371.409 79.2727 373.197 78.8788 374.864 78.0909C376.561 77.303 377.939 76.1667 379 74.6818C380.061 73.197 380.591 71.3939 380.591 69.2727V63.4545C379.924 63.7273 379.212 63.9848 378.455 64.2273C377.727 64.4697 376.939 64.697 376.091 64.9091C375.273 65.1212 374.394 65.3182 373.455 65.5C372.545 65.6818 371.591 65.8485 370.591 66C368.652 66.303 367.061 66.803 365.818 67.5C364.606 68.1667 363.697 69 363.091 70C362.515 70.9697 362.227 72.0606 362.227 73.2727C362.227 75.2121 362.909 76.697 364.273 77.7273C365.636 78.7576 367.379 79.2727 369.5 79.2727ZM430.261 120.182C427.383 120.182 424.64 119.955 422.034 119.5C419.428 119.076 417.14 118.485 415.17 117.727L420.625 99.9091C422.686 100.636 424.564 101.106 426.261 101.318C427.989 101.53 429.458 101.409 430.67 100.955C431.913 100.5 432.807 99.6364 433.352 98.3636L433.898 97.0909L409.352 24.1818H435.534L446.807 72.5455H447.534L458.989 24.1818H485.352L459.898 99.8182C458.625 103.667 456.777 107.121 454.352 110.182C451.958 113.273 448.807 115.712 444.898 117.5C440.989 119.288 436.11 120.182 430.261 120.182Z" fill="white"/>
<path d="M531.625 95.4545C528.11 95.4545 525.095 94.2273 522.58 91.7727C520.095 89.2879 518.867 86.2727 518.898 82.7273C518.867 79.2727 520.095 76.3182 522.58 73.8636C525.095 71.4091 528.11 70.1818 531.625 70.1818C534.958 70.1818 537.898 71.4091 540.443 73.8636C543.019 76.3182 544.322 79.2727 544.352 82.7273C544.322 85.0909 543.701 87.2424 542.489 89.1818C541.307 91.0909 539.761 92.6212 537.852 93.7727C535.943 94.8939 533.867 95.4545 531.625 95.4545Z" fill="#FF0000"/>
</svg>
